<svg width="443" height="282" xmlns="http://www.w3.org/2000/svg" xmlns:xlink="http://www.w3.org/1999/xlink" xml:space="preserve" overflow="hidden"><defs><clipPath id="clip0"><rect x="346" y="182" width="443" height="282"/></clipPath></defs><g clip-path="url(#clip0)" transform="translate(-346 -182)"><path d="M346 330 346 220 456 220 456 286 412 286 412 308 478 308 478 330 390 330 390 264 434 264 434 242 368 242 368 330 346 330Z" fill="#FFFFFF" fill-rule="evenodd" fill-opacity="0.501961"/><path d="M478 330 478 220 588.833 220 588.833 286 544.5 286 544.5 308 611 308 611 330 522.333 330 522.333 264 566.667 264 566.667 242 500.167 242 500.167 330 478 330Z" fill="#FFFFFF" fill-rule="evenodd" fill-opacity="0.501961"/><path d="M611 330 611 220 721.833 220 721.833 286 677.5 286 677.5 308 744 308 744 330 655.333 330 655.333 264 699.667 264 699.667 242 633.167 242 633.167 330 611 330Z" fill="#FFFFFF" fill-rule="evenodd" fill-opacity="0.501961"/><path d="M744 330 744 220 788 220 788 242 766 242 766 330 744 330Z" fill="#FFFFFF" fill-rule="evenodd" fill-opacity="0.501961"/><path d="M347 464 347 354 457 354 457 420 413 420 413 442 479 442 479 464 391 464 391 398 435 398 435 376 369 376 369 464 347 464Z" fill="#FFFFFF" fill-rule="evenodd" fill-opacity="0.501961"/><path d="M479 464 479 354 589 354 589 420 545 420 545 442 611 442 611 464 523 464 523 398 567 398 567 376 501 376 501 464 479 464Z" fill="#FFFFFF" fill-rule="evenodd" fill-opacity="0.501961"/><path d="M612 464 612 354 722 354 722 420 678 420 678 442 744 442 744 464 656 464 656 398 700 398 700 376 634 376 634 464 612 464Z" fill="#FFFFFF" fill-rule="evenodd" fill-opacity="0.501961"/><path d="M744 464 744 354 789 354 789 376 766.5 376 766.5 464 744 464Z" fill="#FFFFFF" fill-rule="evenodd" fill-opacity="0.501961"/><rect x="346" y="182" width="443" height="282" fill="#FFFFFF" fill-opacity="0"/></g></svg>